<?xml version="1.0" standalone="no"?>
<!DOCTYPE svg PUBLIC "-//W3C//DTD SVG 20010904//EN"
 "http://www.w3.org/TR/2001/REC-SVG-20010904/DTD/svg10.dtd">
<svg version="1.0" xmlns="http://www.w3.org/2000/svg"
 width="363.000000pt" height="328.000000pt" viewBox="0 0 363.000000 328.000000"
 preserveAspectRatio="xMidYMid meet">

<g transform="translate(0.000000,328.000000) scale(0.100000,-0.100000)"
fill="#000000" stroke="none">
<path d="M1729 3231 c-23 -18 -24 -24 -21 -128 1 -59 5 -121 8 -136 11 -52 96
-58 116 -8 6 14 12 73 12 131 1 85 -2 111 -17 133 -21 33 -64 36 -98 8z"/>
<path d="M1294 3046 c-49 -22 -74 -61 -74 -117 0 -40 5 -55 32 -85 31 -36 34
-36 89 -31 69 6 81 -1 145 -84 l46 -61 -40 -41 c-22 -23 -52 -65 -66 -94 -22
-45 -26 -65 -26 -140 0 -100 15 -151 53 -191 24 -25 25 -30 13 -47 -13 -18
-19 -17 -147 45 -74 35 -182 80 -241 100 -59 21 -120 46 -135 56 -58 38 -239
94 -308 94 -55 0 -176 -34 -254 -72 -87 -42 -180 -132 -219 -210 -60 -123 -62
-304 -3 -422 44 -89 149 -192 242 -238 77 -38 93 -43 198 -59 94 -15 240 2
316 36 33 15 80 33 105 40 25 7 54 16 65 20 21 8 -31 -43 -278 -275 -85 -80
-156 -151 -156 -158 -1 -7 8 -31 19 -52 18 -36 24 -40 59 -40 36 0 49 12 313
273 151 150 278 282 282 293 3 11 24 38 46 59 32 31 42 37 52 26 11 -10 5 -20
-30 -52 -152 -143 -216 -300 -217 -534 0 -120 7 -169 35 -240 4 -11 14 -36 21
-55 32 -85 128 -204 201 -248 42 -25 53 -64 50 -178 l-2 -102 36 -36 c20 -20
40 -36 44 -36 5 0 17 -10 27 -22 44 -54 120 -90 191 -91 51 -1 123 31 154 68
9 12 37 32 63 45 78 40 85 55 85 188 l0 115 90 85 c50 46 90 89 90 94 0 6 9
23 20 38 37 52 80 148 80 179 0 16 4 33 10 36 23 14 8 328 -19 390 -5 11 -19
41 -30 66 -12 25 -21 50 -21 55 0 6 -11 21 -24 33 -13 12 -32 38 -42 57 -11
20 -40 57 -66 83 -51 51 -58 68 -32 78 19 7 131 -107 146 -148 5 -16 14 -29
19 -29 5 0 36 -34 69 -76 33 -41 138 -151 232 -244 158 -155 176 -169 209
-170 45 0 69 25 69 73 0 34 -11 48 -127 165 -71 70 -159 156 -197 190 -39 34
-68 64 -64 67 8 8 138 -23 169 -40 29 -16 165 -35 254 -35 76 0 193 34 267 78
126 75 256 263 266 385 7 83 -15 193 -51 261 -45 85 -150 185 -243 231 -66 33
-86 38 -173 42 -91 5 -104 4 -197 -27 -157 -52 -232 -83 -430 -176 -39 -19
-76 -34 -83 -34 -17 0 -128 -58 -137 -71 -4 -8 -11 -4 -20 12 -17 30 -17 34
-1 51 43 48 59 93 65 185 4 75 2 86 -24 138 -16 31 -48 77 -71 101 -24 24 -43
51 -43 58 0 22 88 124 121 141 21 11 34 13 48 6 28 -15 86 5 115 40 45 54 32
143 -26 179 -62 38 -118 19 -169 -58 -18 -26 -42 -53 -53 -61 -12 -7 -59 -53
-106 -102 l-85 -88 -109 -2 c-106 -3 -110 -2 -124 22 -29 45 -147 160 -179
174 -24 10 -33 20 -33 37 0 33 -27 68 -66 84 -40 17 -41 17 -80 0z m601 -484
c76 -38 118 -94 128 -172 4 -36 -14 -93 -41 -123 -14 -16 -17 -16 -41 0 -38
25 -225 31 -281 9 -22 -9 -46 -16 -53 -16 -23 0 -49 76 -48 141 0 50 5 67 26
95 15 20 39 40 53 46 108 43 119 46 172 41 30 -3 69 -13 85 -21z m1152 -291
c69 -18 160 -85 202 -151 63 -97 62 -202 -2 -326 -26 -50 -97 -111 -175 -151
l-75 -38 -122 1 c-94 1 -126 4 -146 17 -25 17 -126 54 -231 85 -31 10 -60 21
-64 25 -4 4 -17 7 -29 7 -11 0 -25 4 -30 8 -6 4 -35 16 -66 26 -31 10 -70 29
-85 43 l-29 24 100 -6 c55 -3 198 -6 317 -8 205 -2 218 -1 244 19 35 25 48 69
31 103 l-12 26 -330 0 c-327 0 -370 4 -314 32 30 15 221 96 314 133 39 16 108
46 155 67 169 78 238 91 347 64z m-2332 -1 c3 -5 14 -10 23 -10 9 0 39 -11 67
-24 58 -28 188 -83 290 -121 39 -14 94 -37 123 -51 29 -13 54 -24 56 -24 2 0
30 -12 62 -26 83 -37 54 -44 -131 -32 -235 16 -464 15 -502 -1 -43 -18 -54
-68 -28 -118 l18 -34 329 2 c181 1 331 -1 334 -4 10 -10 -6 -27 -25 -27 -9 0
-21 -4 -26 -9 -6 -5 -71 -29 -145 -54 -127 -42 -149 -50 -225 -83 -16 -7 -43
-16 -60 -20 -16 -4 -36 -11 -43 -17 -23 -18 -211 -13 -276 7 -151 47 -239 129
-271 253 -20 76 -19 128 4 190 42 116 82 151 211 190 78 23 204 31 215 13z
m1145 -140 c50 -14 104 -62 140 -126 30 -52 32 -59 25 -119 -10 -93 -33 -134
-102 -180 -53 -35 -64 -39 -123 -38 -75 0 -149 32 -200 86 -55 58 -78 192 -42
245 9 15 22 35 27 46 38 68 180 113 275 86z m-216 -589 c36 -24 48 -26 145
-26 109 1 134 7 179 49 l24 21 24 -30 c13 -16 36 -41 49 -55 14 -14 25 -31 25
-38 0 -6 4 -12 9 -12 8 0 71 -110 71 -124 0 -3 -173 -6 -385 -6 -338 0 -386 2
-392 15 -3 9 2 24 11 34 9 10 16 22 16 28 0 17 79 126 113 156 35 30 49 29
111 -12z m552 -374 c27 -10 38 -60 25 -117 -5 -23 -11 -43 -13 -45 -2 -2 -194
-5 -428 -6 -486 -2 -438 -13 -439 103 -1 36 4 68 9 70 21 7 826 2 846 -5z
m-38 -357 c-25 -68 -121 -158 -208 -195 -8 -4 -26 -12 -39 -18 -14 -7 -70 -12
-135 -11 -93 0 -117 3 -151 21 -22 12 -53 28 -70 36 -38 18 -139 127 -152 164
l-10 28 387 0 388 0 -10 -25z m-373 -385 c66 0 128 4 138 9 15 7 17 2 17 -58
l0 -66 -146 1 c-80 0 -152 3 -160 6 -10 4 -14 22 -14 65 0 58 1 60 23 52 12
-4 76 -8 142 -9z"/>
<path d="M846 2748 c-24 -34 -19 -69 17 -109 28 -33 121 -112 154 -132 30 -19
113 45 113 86 0 7 -27 35 -61 63 -33 27 -66 54 -72 60 -7 5 -19 13 -27 17 -8
4 -26 14 -40 22 -36 21 -67 18 -84 -7z"/>
<path d="M2635 2760 c-11 -5 -48 -34 -83 -64 -35 -31 -69 -56 -76 -56 -15 0
-56 -54 -56 -75 0 -28 42 -65 74 -65 39 0 66 18 166 109 94 85 103 118 43 150
-25 13 -40 13 -68 1z"/>
<path d="M878 810 c-36 -38 -58 -69 -58 -84 0 -27 39 -66 66 -66 53 0 134 93
134 154 0 44 -10 56 -48 56 -31 0 -44 -9 -94 -60z"/>
<path d="M2542 827 c-43 -46 -30 -75 75 -169 51 -46 75 -47 114 -8 23 23 29
35 23 52 -10 35 -41 74 -88 113 -51 42 -92 46 -124 12z"/>
</g>
</svg>
